<svg xmlns="http://www.w3.org/2000/svg" width="575.323" height="575.32"><path d="M450.669 284.786l-37.3 16.763q-1.076.482-1.626 1.205-.468.509-.497 1.868 1.147 19.111 1.189 31.855.021 7.976-.742 13.434-.734 8.586-10.808 31.626-16.402 32.913-53.77 59.897 32.774-15.864 39.012-22.269 9.518-7.84 23.073-21.678 5.555-5.786 12.991-16.986 14.107-20.34 22.908-49.351 6.546-19.844 5.576-46.18zM288.565 91.701h.271l.633.01q11.203.18 6.281 14.458l-35.776 56.91q29.46 19.19 33.83 23.795 7.351 6.247 8.32 14.156l-26.154 51.543 33.143 1.05 29.438-36.892-14.679-38.13q.261-11.623 8.452-11.623.501 0 1.032.043 4.119.634 12.327 8.032 31.078 31.803 46.759 45.437l-6.51 33.054 80.412 1.519q3.518 19.338 3.343 36.5.95 73.1-54.708 127.98-25.79 24.468-61.103 40.485-29.118 10.996-69.97 10.996h-.234q-67.542-.638-124.955-57.323-50.102-53.634-47.968-121.707.565-22.771 2.97-40.31l60.658-1.356 41.865-37.425q-16.889-31.611-17.478-34.722-3.347-7.917-.66-11.789L267 106.126l9.6-11.662q2.835-2.763 11.964-2.763zM287.405 0Q167.85 2.282 83.975 84.502 1.994 169.15 0 287.022q1.487 119.15 84.667 204.495 85.32 81.937 201.45 83.803 119.184-1.126 204.76-84.022 83.049-86.007 84.446-203.455-1.231-117.469-84.197-203.549Q406.538 2.151 288.733.01z" fill="#c76f27"/><path d="M450.669 284.786l.006.185q.97 26.335-5.576 46.179-8.802 29.011-22.908 49.35-7.436 11.201-12.991 16.987-13.555 13.837-23.073 21.678-6.239 6.405-39.013 22.269 37.369-26.984 53.77-59.897 10.074-23.04 10.809-31.626.763-5.458.741-13.434-.041-12.744-1.189-31.855.03-1.36.497-1.868.55-.723 1.626-1.205zM288.565 91.701q-9.13 0-11.965 2.763l-9.6 11.662-68.897 60.266q-2.686 3.872.661 11.79.59 3.11 17.478 34.72l-41.865 37.426-60.658 1.357q-2.405 17.538-2.97 40.31-2.134 68.072 47.968 121.706 57.413 56.685 124.955 57.323h.234q40.852 0 69.97-10.997 35.313-16.016 61.103-40.484 55.658-54.88 54.708-127.98.175-17.162-3.343-36.5l-80.413-1.519 6.51-33.054q-15.68-13.635-46.758-45.437-8.208-7.399-12.327-8.032-.53-.043-1.032-.043-8.191 0-8.452 11.622l14.679 38.131-29.438 36.892-33.143-1.05 26.154-51.543q-.969-7.91-8.32-14.156-4.37-4.606-33.83-23.796l35.776-56.91q4.922-14.276-6.281-14.456l-.633-.01h-.27z" fill="#fff"/></svg>